<?xml version="1.0" encoding="UTF-8"?>
<svg xmlns="http://www.w3.org/2000/svg" xmlns:xlink="http://www.w3.org/1999/xlink" id="Layer_1" data-name="Layer 1" viewBox="0 0 180 180">
  <defs>
    <clipPath id="clip-path">
      <rect x="2" y="40.07" width="117.05" height="95.93" style="fill:none"></rect>
    </clipPath>
  </defs>
  <title>book</title>
  <g style="clip-path:url(#clip-path)">
    <path d="M27.34,72.47h-12a2.77,2.77,0,0,0-2.73,2.77v12A2.76,2.76,0,0,0,15.3,90h12a2.77,2.77,0,0,0,2.73-2.77V75.29a2.78,2.78,0,0,0-2.73-2.82Z" style="fill:#241f21"></path>
    <path d="M48.13,72.47h-12a2.77,2.77,0,0,0-2.77,2.77v12A2.77,2.77,0,0,0,36.13,90h12a2.78,2.78,0,0,0,2.78-2.77V75.29a2.78,2.78,0,0,0-2.73-2.82h0" style="fill:#241f21"></path>
    <path d="M68.93,72.47h-12a2.78,2.78,0,0,0-2.78,2.77v12A2.78,2.78,0,0,0,56.93,90h12a2.77,2.77,0,0,0,2.77-2.77V75.29A2.78,2.78,0,0,0,69,72.47h0" style="fill:#241f21"></path>
    <path d="M27.34,93.83h-12a2.76,2.76,0,0,0-2.73,2.77v12a2.77,2.77,0,0,0,2.73,2.77h12a2.77,2.77,0,0,0,2.73-2.77v-12a2.77,2.77,0,0,0-2.73-2.77" style="fill:#241f21"></path>
    <path d="M48.13,93.83h-12a2.77,2.77,0,0,0-2.77,2.77v12a2.77,2.77,0,0,0,2.77,2.77h12a2.78,2.78,0,0,0,2.78-2.77v-12a2.78,2.78,0,0,0-2.78-2.77" style="fill:#241f21"></path>
    <path d="M103.75,113H93.14a2.73,2.73,0,0,1-2.73-2.73V96.6a2.75,2.75,0,1,1,5.5,0v10.91h7.84a2.78,2.78,0,1,1,.69,5.51,4,4,0,0,1-.69,0M71.65,96.17a2.75,2.75,0,0,0-2.72-2.34h-12a2.78,2.78,0,0,0-2.78,2.77v12a2.78,2.78,0,0,0,2.78,2.77h10.7a24.16,24.16,0,0,0,.86,5.67H10.06a2.56,2.56,0,0,1-2.56-2.55V66.84H97.56V85a24.27,24.27,0,0,0-4.33-.44h-.65V75.29a2.78,2.78,0,0,0-2.73-2.78H77.72A2.78,2.78,0,0,0,75,75.29v12A2.76,2.76,0,0,0,77.33,90a26.62,26.62,0,0,0-5.68,6.16m-61.59-44h8v3.51a2.78,2.78,0,0,0,5.55,0V52.2H34v3.51a2.75,2.75,0,1,0,5.5,0V52.2H49.78v3.51a2.77,2.77,0,0,0,5.5.69,2.66,2.66,0,0,0,0-.69V52.2H65.59v3.51a2.77,2.77,0,0,0,5.54,0V52.2H81.44v3.51a2.76,2.76,0,1,0,5.51,0V52.2h8.1a2.51,2.51,0,0,1,2.51,2.51v6.63H7.5V54.71a2.55,2.55,0,0,1,2.56-2.51m93,34.31V54.71a8,8,0,0,0-8-8H87V43.19a2.76,2.76,0,1,0-5.51,0V46.7H71.13V43.19a2.77,2.77,0,0,0-5.54,0V46.7H55.28V43.19a2.77,2.77,0,1,0-5.5-.69,2.66,2.66,0,0,0,0,.69V46.7H39.47V43.19a2.75,2.75,0,1,0-5.5,0V46.7H23.66V43.19a2.78,2.78,0,0,0-5.55,0V46.7h-8a8,8,0,0,0-8.06,8v59.86a8,8,0,0,0,8,8H70.7a25.73,25.73,0,1,0,32.49-36Z" style="fill:#241f21"></path>
  </g>
</svg>
