<?xml version="1.0" encoding="UTF-8"?>
<svg xmlns="http://www.w3.org/2000/svg" xmlns:xlink="http://www.w3.org/1999/xlink" id="Layer_1" data-name="Layer 1" viewBox="0 0 180 180">
  <defs>
    <clipPath id="clip-path">
      <rect x="4" y="43.07" width="106.65" height="95.93" style="fill:none"></rect>
    </clipPath>
  </defs>
  <title>helmet</title>
  <g style="clip-path:url(#clip-path)">
    <path d="M106.81,121.31a2.2,2.2,0,0,1-2.16,2.24H102a19.7,19.7,0,0,0,.47-4.4v-8.8A20.37,20.37,0,0,0,102,106h4.78Zm-23.58,13.2H74.78a6.41,6.41,0,0,1-5.24-2.77,13.61,13.61,0,0,0-.89-1.94v-.22a12.39,12.39,0,0,0-17.46-4.24l-.29.19A13.4,13.4,0,0,0,47,129.58v.22a13.49,13.49,0,0,0-.81,1.72A6.4,6.4,0,0,1,41,134.29H32.52c-8.27,0-15-7-15-15.58v-8.8c0-8.62,6.72-15.62,15-15.62H83.23c8.28,0,15,7,15,15.62v8.8c.09,8.63-6.55,15.7-14.83,15.8h-.17m-75-33.44V98.82c0-28.33,22.06-51.31,49.27-51.31s49.27,23,49.27,51.31v2.25h-6.3A19.21,19.21,0,0,0,83.23,89.93H31.85a19.22,19.22,0,0,0-17.29,11.14ZM13,123.38H10.42a2.2,2.2,0,0,1-2.15-2.25V105.51H13a20.36,20.36,0,0,0-.46,4.4v8.8a19.79,19.79,0,0,0,.46,4.67m44.5-80.31C28,43.09,4,68,4,98.82v22.31a6.56,6.56,0,0,0,6.42,6.69h4.23A19.17,19.17,0,0,0,31.85,139H40.3a10.52,10.52,0,0,0,8.79-4.71h.21V134a8.13,8.13,0,0,0,.84-1.76,8.26,8.26,0,0,1,11.64-2.83l.15.1a8.23,8.23,0,0,1,2.58,2.73,8.62,8.62,0,0,0,.84,1.76v.26h.22a10.52,10.52,0,0,0,8.7,4.71h8.45A19.16,19.16,0,0,0,100,127.82h4.23a6.55,6.55,0,0,0,6.42-6.69V98.82c0-30.61-23.72-55.49-53.11-55.75" style="fill:#241f21"></path>
    <path d="M70.21,118.93a2.19,2.19,0,0,1-2.15-2.24,2.4,2.4,0,0,1,.63-1.58L79.43,104a2.07,2.07,0,0,1,3,0,2.3,2.3,0,0,1,0,3.13L71.9,118.27a2.15,2.15,0,0,1-1.69.66" style="fill:#241f21"></path>
    <path d="M74.69,127.82a2.15,2.15,0,0,1-2.15-2.15v0a2.18,2.18,0,0,1,.63-1.58l15.13-15.8a2.17,2.17,0,0,1,3,0,2.31,2.31,0,0,1,0,3.17l-15.17,15.8a2.06,2.06,0,0,1-1.48.61" style="fill:#241f21"></path>
    <path d="M57.54,63.14A6.74,6.74,0,1,0,64,69.91v-.09a6.56,6.56,0,0,0-6.42-6.68m0,17.86A11.18,11.18,0,1,1,68.23,69.78v0A11,11,0,0,1,57.54,81" style="fill:#241f21"></path>
  </g>
</svg>
