<?xml version="1.0" encoding="UTF-8"?>
<svg xmlns="http://www.w3.org/2000/svg" id="Layer_1" data-name="Layer 1" viewBox="0 0 180 180">
  <title>salomon-logo</title>
  <path d="M38.61,114.37c0-.83.51-1.4,3.51-1.4a20.54,20.54,0,0,1,6.6.86v-2.9a23.88,23.88,0,0,0-6.52-.7c-5.46,0-7,1.65-7,4.16,0,3.06,2.28,3.86,6.95,4.37,2.57.27,3.87.33,3.87,1.3s-.66,1.27-3.58,1.29a20.55,20.55,0,0,1-6.81-1.06v3.08a25.31,25.31,0,0,0,6.85.82c4.11,0,7-.82,7-4.23,0-3.23-2.34-3.66-6.85-4.14-2.2-.24-4-.39-4-1.45M61.16,119c0,2-1.69,2.38-4.09,2.38-2.78,0-3.33-.53-3.33-1.33s.9-1,3.16-1.36c1.85-.25,3.82-.7,4.26-1.17Zm3.08.62v-4.87c0-4-3.52-4.59-6.82-4.59a27.88,27.88,0,0,0-5.8.8v2.88a33.38,33.38,0,0,1,5.8-.76c1.5,0,3.43.1,3.43,1.19,0,.93-1.15,1.24-3.43,1.54-4.1.54-7.06,1.07-7.06,4.24s2.57,4.21,7.06,4.21c5,0,6.82-1.78,6.82-4.64M71.57,124a28.21,28.21,0,0,0,3.61-.19l-.46-2.71a30.58,30.58,0,0,1-3.13.16c-1.78,0-3-.72-3-2.07v-8.87H65.53v9.12c0,3.76,3.31,4.56,6,4.56Zm14.85-6.71c0,.57-.06,1.1-.12,1.6-.21,1.64-1.19,2.44-3,2.44H81.67c-1.79,0-2.77-.8-3-2.44-.06-.5-.1-1-.12-1.6s.06-1.1.12-1.59c.21-1.66,1.19-2.45,3-2.45h1.65c1.79,0,2.77.79,3,2.45.06.49.1,1,.12,1.59m2.9,2.87a15.85,15.85,0,0,0,.23-2.65v-.43a15.48,15.48,0,0,0-.23-2.65c-.41-2.82-2.38-4.2-6-4.2H81.67c-3.63,0-5.59,1.38-6,4.2a16.51,16.51,0,0,0-.24,2.65v.43a16.94,16.94,0,0,0,.24,2.65c.41,2.8,2.37,4.18,6,4.18h1.65c3.62,0,5.59-1.38,6-4.18m21.77,3.74h3.14v-6.39a16.81,16.81,0,0,0-.24-3.08c-.41-2.8-2.37-4.19-6-4.19h-.88a6.58,6.58,0,0,0-4.67,1.43,6.53,6.53,0,0,0-4.66-1.43h-.88c-3.62,0-5.58,1.39-6,4.19a16.81,16.81,0,0,0-.24,3.08v6.39h3.14v-6.39A12.79,12.79,0,0,1,94,115.7c.19-1.64,1.16-2.44,3-2.44h.88c1.79,0,2.77.8,3,2.44a12.89,12.89,0,0,1,.12,1.81v6.39H104v-6.39a12.89,12.89,0,0,1,.12-1.81c.21-1.64,1.19-2.44,3-2.44H108c1.79,0,2.76.8,3,2.44a10.39,10.39,0,0,1,.14,1.81Zm15.38-6.61a10.14,10.14,0,0,1-.11,1.6c-.2,1.64-1.19,2.44-3,2.44h-1.64c-1.79,0-2.78-.8-3-2.44a11.49,11.49,0,0,1-.11-1.6,11.13,11.13,0,0,1,.11-1.59c.2-1.66,1.19-2.45,3-2.45h1.64c1.79,0,2.78.79,3,2.45a9.84,9.84,0,0,1,.11,1.59m2.93,2.87a19.91,19.91,0,0,0,.21-2.65v-.43a19.38,19.38,0,0,0-.21-2.65c-.41-2.82-2.4-4.2-6-4.2h-1.64c-3.64,0-5.6,1.38-6,4.2a15.52,15.52,0,0,0-.22,2.65v.43a15.87,15.87,0,0,0,.22,2.65c.41,2.8,2.37,4.18,6,4.18h1.64c3.62,0,5.61-1.38,6-4.18m15.22,3.72v-6.37a18.47,18.47,0,0,0-.23-3.08c-.41-2.82-2.38-4.2-6-4.2h-1.46c-3.62,0-5.61,1.38-6,4.2a18.51,18.51,0,0,0-.22,3.08v6.37h3.14v-6.37a14.19,14.19,0,0,1,.11-1.81c.22-1.66,1.19-2.45,3-2.45h1.46c1.79,0,2.77.79,3,2.45a12.49,12.49,0,0,1,.12,1.81v6.37Z" style="fill:#231f20"></path>
  <path d="M109.28,56a4.5,4.5,0,0,1,4.49,4.49V99.74a4.49,4.49,0,0,1-4.49,4.48H70a4.49,4.49,0,0,1-4.49-4.48V60.49A4.49,4.49,0,0,1,70,56h39.25M86.17,91.86a3.57,3.57,0,0,1-1.67-.52l-3.86-2.17A3.75,3.75,0,0,0,79,88.64H74a.89.89,0,0,0-.89.89V94.6a2,2,0,0,0,1.77,1.86,152.47,152.47,0,0,0,29.6,0,1.93,1.93,0,0,0,1.77-1.87V86.15a3.92,3.92,0,0,0-1.92-3.37l-20-11.24a1.67,1.67,0,0,1-.78-1.45,1.6,1.6,0,0,1,1.56-1.73h8.06a3.69,3.69,0,0,1,1.67.52l3.86,2.18a3.71,3.71,0,0,0,1.69.53h5a.88.88,0,0,0,.88-.89V65.62a1.93,1.93,0,0,0-1.76-1.85,150.91,150.91,0,0,0-29.6,0,1.92,1.92,0,0,0-1.78,1.86v8.45A3.92,3.92,0,0,0,75,77.44L95,88.69a1.64,1.64,0,0,1,.78,1.44,1.59,1.59,0,0,1-1.56,1.73Z"></path>
</svg>
