<?xml version="1.0" encoding="UTF-8"?>
<svg xmlns="http://www.w3.org/2000/svg" id="Layer_1" data-name="Layer 1" viewBox="0 0 180 180">
  <title>nordica</title>
  <path d="M48.58,84.17h7.58L50.5,78H41L25.81,84.17H36.16l2.58-1.3L32,93.09,29.9,85.68H22L11.45,101.31h8.8l4.7-7,1.46,7H35.2L47.51,82.89" style="fill:#e30613"></path>
  <path d="M69,88.9c-1.14-4.06-9.3-5-15.86-3.07S39.82,92.27,41,97.63c.91,4.11,9.8,5,16.35,3.1S70.15,93,69,88.9M58.82,93c-2,2.91-4.28,5.36-7.58,5.72-2.23.24-2.46-1.93-.51-4.84s5.35-5.48,7.58-5.72,2.46,1.92.51,4.84m99.53-7.35L144,98h-4.1c-3,0-5.44-.7-6.09-2.09a2.36,2.36,0,0,1-.13-1.13,3.17,3.17,0,0,1,.45-1.37c1.74-3.07,7.58-3.22,11-3.22h2.47l3.77-4.51h-6.93c-7.77,0-14.17,1.91-17.44,7.12-4.91,7.81,5.33,8.93,8.94,8.93h13.38l2-1.93h7.13l-.24,1.72h7.68l2.94-15.84ZM159,96.32h-3.91L159.56,92l-.6,4.28ZM121.41,85.64l-10.62,15.67h8.87l10.62-15.67m-16.09,9.22c-4.64,7-16.8,6.44-16.8,6.44H82.26a5.55,5.55,0,0,1-5.07-5.77l-3.86,5.77H64.56L75.05,85.64H85.57c5.91,0,9.56,2,7.36,5.25a10.43,10.43,0,0,1-7.43,4.23c-.17,1.44.11,3.76,3,3.76h.3l8.86-13.24H106c3.59,0,13.58,1.11,8.18,9.22ZM84.36,90.69c.3-.65-.51-1.55-1.58-1.55H81.47l-2.28,3.4c2.83,0,4.47-.33,5.18-1.85Zm21.34,3c2.14-3.25,1.38-4.59-.31-4.59h-1.34l-6.28,9.38a9.55,9.55,0,0,0,7.93-4.79Z" style="fill:#e30613"></path>
</svg>
