<?xml version="1.0" encoding="UTF-8"?>
<svg xmlns="http://www.w3.org/2000/svg" id="Layer_1" data-name="Layer 1" viewBox="0 0 180 180">
  <title>burton-logo</title>
  <path d="M34.69,93.36v.91c0,2.82.09,3,1.86,3,2.78,0,4.32-1.36,4.32-3.86a4,4,0,0,0-4.09-4.27c-1.73,0-2,.36-2.09,2.36Zm1.36-10.68c-1.13,0-1.36.37-1.36,2,0,2.5.09,2.72,1.14,2.72,1.63,0,2.5-.77,2.5-2.18,0-1.63-.87-2.59-2.28-2.59M46.69,94.09A5,5,0,0,1,42.55,99a21.57,21.57,0,0,1-5.4.59h-7.5c-1.28,0-1.69-.23-1.69-1,0-.5.28-.82.91-1s.73-.27.82-.45a5.14,5.14,0,0,0,.23-1.91l0-1.78v-7c0-2.18-.09-3.09-.27-3.4s-.32-.28-1-.46-.82-.41-.82-.86c0-1.09.77-1.23,6-1.23a18.82,18.82,0,0,1,6.27.73,4.62,4.62,0,0,1,3,4c0,1.5-.68,2.41-2.32,3.14,3.64.59,5.82,2.73,5.82,5.68m17.77-8.41a16.57,16.57,0,0,1-.13-1.77c0-.73.18-1.09.82-1.23s.86-.41.86-1-.32-.82-1.14-.82H60.78c-.73,0-1.09.28-1.09.87s.23.72.86.91c1,.31,1.05.63,1.23,3.41l.32,6c0,.63,0,1.13,0,1.63,0,2.64-1.37,3.87-4.28,3.87a4.16,4.16,0,0,1-3.22-1.14,4.24,4.24,0,0,1-.78-3c0-.55,0-1.14.05-1.68l.32-6.28c.09-2.31.18-2.5,1.22-2.72.64-.09.91-.41.91-.91,0-.77-.36-1-1.5-1H49.24c-.82,0-1.23.32-1.23,1,0,.5.27.77.91,1s.77.41.77,1.09c0,.28,0,.69,0,1L49.1,92c-.14,1.69-.14,2-.14,2.28,0,3.82,2.73,5.63,8.32,5.63a15,15,0,0,0,4.87-.72A6.75,6.75,0,0,0,63.83,98c.86-.91,1.18-2,1.18-4.23,0-.54-.05-1.09-.05-1.59Zm9.59,3.73c0,2.18.55,2.73,2.5,2.73,3,0,4.87-1.64,4.87-4.23a4.71,4.71,0,0,0-4.64-4.86c-2.09,0-2.77.68-2.77,2.63Zm11.28,7a4.12,4.12,0,0,0,1.36,1.1l.46.18a1,1,0,0,1,.72,1c0,.68-.41,1-1.32,1H80.24c-.78,0-1.23-.32-1.23-1a1,1,0,0,1,.64-1l.4-.13c.19-.09.28-.19.28-.32s-.09-.37-.41-.73l-2.18-2.23a14.11,14.11,0,0,1-1.87.14,11.49,11.49,0,0,1-1.72-.14,11.13,11.13,0,0,0-.1,1.37c0,1.45.14,1.82.64,2l.59.09a1,1,0,0,1,.77,1c0,.68-.45,1-1.45,1H69c-1.27,0-1.68-.23-1.68-1,0-.5.27-.82.91-1s.68-.27.77-.45.18-.64.23-1.91l0-1.77V87.09l0-1.82c0-1.32-.09-1.68-.23-1.91s-.27-.27-.77-.5-.91-.5-.91-1c0-.72.41-1,1.63-1h5.69c4,0,6.45.46,8.59,1.69A6.68,6.68,0,0,1,87,88.27c0,2.55-1.46,4.18-4.5,5Zm15.54-11.09c0-1.81.18-2,1.68-2,1.78,0,2.87.59,4.64,2.41.5.5.82.72,1.14.72a.73.73,0,0,0,.77-.77,2.18,2.18,0,0,0-.23-.82l-2-4c-.32-.63-.55-.86-1-.86a.81.81,0,0,0-.46.14s-.18.13-.45.31a3.35,3.35,0,0,1-2.09.41H94.24a2.15,2.15,0,0,1-1.69-.5,1.1,1.1,0,0,0-.81-.36,1.07,1.07,0,0,0-.87.64l-2.36,4.13a1.81,1.81,0,0,0-.32,1,.7.7,0,0,0,.77.72c.41,0,.55-.09,1.37-.9,1.68-1.69,2.77-2.28,4.32-2.28,1.31,0,1.54.28,1.54,1.82V92l0,1.5-.05,1.77a5,5,0,0,1-.23,1.91c-.09.18-.27.27-.82.46s-.9.54-.9,1c0,.77.4,1,1.68,1h5.41c1.22,0,1.68-.23,1.68-1,0-.5-.27-.82-1-1-.54-.19-.68-.28-.77-.46a5,5,0,0,1-.23-1.91l0-1.77,0-1.5V85.36Zm19.46-2.59c-2.91,0-4.82,3.18-4.82,8,0,4.32,1.73,6.73,4.86,6.73s4.87-2.41,4.87-6.32c0-5-2-8.41-4.91-8.41M120.24,100c-6.59,0-10.5-3.23-10.5-8.77a10.59,10.59,0,1,1,21.18-.37c0,5.69-4,9.14-10.68,9.14m29.54-.36h.5c.41,0,.5-.19.5-.91v-.09a6.05,6.05,0,0,1,0-.87V88.5l0-1.45.05-1.82a5,5,0,0,1,.22-1.91c.1-.18.28-.27.82-.5s.91-.5.91-1c0-.73-.41-1-1.68-1h-3.91c-.86,0-1.23.23-1.23.86s.19.73.87,1c.86.27,1,.68,1,2v3.27c0,.68,0,.82-.27.82s-.45-.14-.82-.5l-6.36-6.37c-.91-.86-1.14-1-2.14-1H134c-1.22,0-1.68.28-1.68,1,0,.5.27.82,1,1,.54.19.68.28.77.5s.18.59.23,1.91l0,1.82v6.46l0,1.77c-.05,1.27-.05,1.63-.23,1.91s-.27.27-.77.45-1,.55-1,1c0,.77.41,1,1.68,1h3.64c1.23,0,1.68-.23,1.68-1,0-.5-.27-.82-.91-1s-.68-.27-.82-.45a5.25,5.25,0,0,1-.22-1.91l-.05-1.77,0-1.5V88.18l0-.91c.05-.63.14-.82.37-.82a1.4,1.4,0,0,1,.68.5l8.18,8.64a3.81,3.81,0,0,1,1.36,3.09l0,.55c0,.41.13.5.86.5h1Z" style="fill:#333"></path>
</svg>
