<?xml version="1.0" encoding="UTF-8"?>
<svg xmlns="http://www.w3.org/2000/svg" id="Layer_1" data-name="Layer 1" viewBox="0 0 180 180">
  <title>black-crows-logo</title>
  <g id="svg_4" data-name="svg 4">
    <polygon id="svg_5" data-name="svg 5" points="123.94 53.05 125.61 53.05 125.61 53.23 124.88 53.23 124.88 55.17 124.67 55.17 124.67 53.23 123.94 53.23 123.94 53.05"></polygon>
    <polygon id="svg_6" data-name="svg 6" points="125.7 55.17 125.88 55.17 125.88 53.35 125.91 53.35 126.61 55.17 126.82 55.17 127.52 53.35 127.52 53.35 127.52 55.17 127.73 55.17 127.73 53.05 127.43 53.05 126.7 54.9 126 53.05 125.7 53.05 125.7 55.17"></polygon>
    <path id="svg_7" data-name="svg 7" d="M61.94,52.76a4.94,4.94,0,0,0-2.65.67A5.43,5.43,0,0,0,57.71,55V48H53.86V67.8h3.79V65.92a6.07,6.07,0,0,0,1.41,1.52,5.06,5.06,0,0,0,2.91.74,5.21,5.21,0,0,0,4.49-2.26,9.43,9.43,0,0,0,1.61-5.67,8.56,8.56,0,0,0-1.64-5.41,5.34,5.34,0,0,0-4.49-2.08m1.29,11A2.62,2.62,0,0,1,60.94,65a2.82,2.82,0,0,1-2.53-1.24,5.72,5.72,0,0,1-.82-3.14A7.32,7.32,0,0,1,58,58a3.05,3.05,0,0,1,5.67,0,7.26,7.26,0,0,1,.41,2.58,5.61,5.61,0,0,1-.85,3.17"></path>
    <rect id="svg_8" data-name="svg 8" x="68.93" y="48" width="3.85" height="19.8"></rect>
    <path id="svg_9" data-name="svg 9" d="M95.13,56a2.35,2.35,0,0,1,2,.88,3.14,3.14,0,0,1,.56,1.47h3.94A5.64,5.64,0,0,0,99.56,54,7.79,7.79,0,0,0,95,52.76a6.49,6.49,0,0,0-5.11,2.08,8.55,8.55,0,0,0-1.85,5.91,8.45,8.45,0,0,0,1.67,5.46,6.31,6.31,0,0,0,5.2,2.09,6.33,6.33,0,0,0,6.61-5.76H97.62a3.54,3.54,0,0,1-.7,1.85,2.36,2.36,0,0,1-1.94.7,2.59,2.59,0,0,1-2.62-1.79A7.45,7.45,0,0,1,92,60.66a8,8,0,0,1,.38-2.76A2.79,2.79,0,0,1,95.13,56"></path>
    <polygon id="svg_10" data-name="svg 10" points="116.19 53.17 111.46 53.17 106.73 58.69 106.73 48 102.88 48 102.88 67.8 106.73 67.8 106.73 63.19 108.28 61.51 111.78 67.8 116.39 67.8 111.02 58.66 116.19 53.17"></polygon>
    <path id="svg_11" data-name="svg 11" d="M60.91,72.2a2.38,2.38,0,0,1,2,.88,3.14,3.14,0,0,1,.56,1.47h3.94a5.67,5.67,0,0,0-2.09-4.32A7.79,7.79,0,0,0,60.79,69a6.42,6.42,0,0,0-5.11,2.09A8.57,8.57,0,0,0,53.83,77a8.45,8.45,0,0,0,1.67,5.46,6.31,6.31,0,0,0,5.2,2.09,6.33,6.33,0,0,0,6.61-5.76H63.43a3.46,3.46,0,0,1-.7,1.85,2.37,2.37,0,0,1-1.94.71,2.59,2.59,0,0,1-2.61-1.8,7.21,7.21,0,0,1-.39-2.64,7.77,7.77,0,0,1,.39-2.76,2.76,2.76,0,0,1,2.73-1.94"></path>
    <path id="svg_12" data-name="svg 12" d="M76.3,69a4.06,4.06,0,0,0-2.79.91,7.69,7.69,0,0,0-1.56,2V69.38H68.34V84h3.85V77a5.83,5.83,0,0,1,.44-2.62,3.16,3.16,0,0,1,3.08-1.49h.47c.18,0,.41,0,.65,0V69.06a2,2,0,0,0-.33,0,.38.38,0,0,0-.2,0"></path>
    <path id="svg_13" data-name="svg 13" d="M84.43,68.91a6.75,6.75,0,0,0-5.63,2.32,9.09,9.09,0,0,0,0,11,6.82,6.82,0,0,0,5.63,2.29,6.83,6.83,0,0,0,5.64-2.29,8.44,8.44,0,0,0,1.85-5.52,8.54,8.54,0,0,0-1.85-5.5,6.84,6.84,0,0,0-5.64-2.32M87,80.13a3.37,3.37,0,0,1-5.17,0,6.83,6.83,0,0,1,0-6.81,3.37,3.37,0,0,1,5.17,0,5.65,5.65,0,0,1,.91,3.41,5.92,5.92,0,0,1-.91,3.4"></path>
    <polygon id="svg_14" data-name="svg 14" points="112.25 69.38 109.11 79.81 106.05 69.38 104.73 69.38 102.59 69.38 101.32 69.38 98.21 79.81 95.16 69.38 90.84 69.38 96.09 84.04 100.15 84.04 103.64 73.23 107.02 84.04 111.05 84.04 116.36 69.38 112.25 69.38"></polygon>
    <path id="svg_15" data-name="svg 15" d="M127.67,76.87a7.22,7.22,0,0,0-3.44-1.61,25.78,25.78,0,0,1-4-1.06,1,1,0,0,1-.56-1,1.12,1.12,0,0,1,.53-.91,3.09,3.09,0,0,1,1.79-.38,2.64,2.64,0,0,1,2.17.79,2.21,2.21,0,0,1,.42,1.18h3.84a4.71,4.71,0,0,0-2-3.82,8.2,8.2,0,0,0-4.5-1.09,6.4,6.4,0,0,0-4.49,1.44,4.57,4.57,0,0,0-1.59,3.47,3.4,3.4,0,0,0,1,2.64,8.39,8.39,0,0,0,3.52,1.53,19.72,19.72,0,0,1,4,1.14,1.16,1.16,0,0,1,.56,1,1.08,1.08,0,0,1-.68,1,4,4,0,0,1-1.82.35,3.67,3.67,0,0,1-2.67-.76,2.67,2.67,0,0,1-.53-1.47h-3.85a4.74,4.74,0,0,0,1.65,3.7c1.08,1,2.79,1.47,5.11,1.47a7.71,7.71,0,0,0,5-1.38,4.37,4.37,0,0,0,1.61-3.53,3.78,3.78,0,0,0-1.14-2.73"></path>
    <path id="svg_16" data-name="svg 16" d="M85,53.7a9.4,9.4,0,0,0-4.26-.94c-2.46,0-4.2.64-5.2,1.94a5.65,5.65,0,0,0-1.08,3.14h3.67a2.78,2.78,0,0,1,.53-1.35,2.43,2.43,0,0,1,1.91-.68,3.71,3.71,0,0,1,1.82.36A1.31,1.31,0,0,1,83,57.43a1.13,1.13,0,0,1-.83,1.08,5.37,5.37,0,0,1-1.52.33l-1.3.17A9.11,9.11,0,0,0,76,60a4.24,4.24,0,0,0-2.08,3.94,4.09,4.09,0,0,0,1.29,3.23,4.8,4.8,0,0,0,3.29,1.15,5.54,5.54,0,0,0,2.79-.71,8,8,0,0,0,1.79-1.44v1.73h3.7l0-10.54c0-1.79-.58-3-1.82-3.61m-2,8.37a3.08,3.08,0,0,1-1.08,2.67,3.8,3.8,0,0,1-2.26.74A2,2,0,0,1,78.35,65,2.1,2.1,0,0,1,78.71,62a5.73,5.73,0,0,1,1.73-.53l.85-.17a6.4,6.4,0,0,0,1-.27A2.69,2.69,0,0,0,83,60.6Z"></path>
  </g>
  <g id="svg_17" data-name="svg 17">
    <path id="svg_18" data-name="svg 18" d="M78.06,109.8l-6.2-6.2-4.67,4.64L78,119.08l10.84-10.84-4.64-4.64s-3.73,3.73-6.17,6.2"></path>
    <path id="svg_19" data-name="svg 19" d="M103.38,109.8l-6.2-6.2-4.64,4.67,10.84,10.84,10.84-10.84-4.67-4.64s-3.73,3.7-6.17,6.17"></path>
    <path id="svg_20" data-name="svg 20" d="M90.72,97.2,84.52,91l-4.64,4.67,10.84,10.84,10.84-10.84L96.89,91s-3.73,3.76-6.17,6.2"></path>
    <path id="svg_21" data-name="svg 21" d="M90.72,122.46l-6.2-6.2-4.64,4.64,10.84,10.84,10.84-10.84-4.67-4.64s-3.73,3.73-6.17,6.2"></path>
    <path id="svg_22" data-name="svg 22" d="M65.52,97.23,59.32,91,54.65,95.7l10.87,10.84L76.39,95.7l-4.67-4.64s-3.73,3.7-6.2,6.17"></path>
    <path id="svg_23" data-name="svg 23" d="M115.92,97.23l-6.2-6.2-4.64,4.64,10.84,10.84,10.84-10.84L122.09,91s-3.7,3.73-6.17,6.2"></path>
  </g>
</svg>
