<?xml version="1.0" encoding="UTF-8"?>
<svg xmlns="http://www.w3.org/2000/svg" id="Layer_1" data-name="Layer 1" viewBox="0 0 180 180">
  <title>faction</title>
  <polygon points="40.91 88.15 31.07 88.15 31.07 85.15 42.03 85.15 44.33 79 23.6 79 23.6 103.15 31.07 103.15 31.07 93.94 38.82 93.94 40.91 88.15" style="fill:#1d1d1b"></polygon>
  <path d="M75.46,87.94a3.88,3.88,0,0,0-3.91-3.56c-3.49,0-4.6,3.35-4.6,6.63s1.11,6.63,4.6,6.63c2.52,0,3.49-1.74,3.91-4h7.33c0,4.89-4,10-11,10C64,103.64,59.55,98.13,59.55,91c0-7.61,4.82-12.63,12.21-12.63,6.63,0,10.26,3.49,11,9.56Z" style="fill:#1d1d1b"></path>
  <path d="M88.52,85.15H81.74V78.93h21v6.22H96v17.93H88.52Z" style="fill:#1d1d1b"></path>
  <path d="M103.59,79h7.47v24.15h-7.47Z" style="fill:#1d1d1b"></path>
  <path d="M123.14,78.38c7.32,0,12.21,5.3,12.21,12.63s-4.89,12.63-12.21,12.63S110.92,98.34,110.92,91,115.81,78.38,123.14,78.38Zm0,19.33c1.88,0,4.81-1.26,4.81-6.63s-2.93-6.63-4.81-6.63-4.82,1.25-4.82,6.63S121.25,97.71,123.14,97.71Z" style="fill:#1d1d1b"></path>
  <path d="M54.24,79H47l-8.94,24.15h7.47l1.12-3.42h7.67l.77,2.8.21.69H63Zm-6,15.5L50.54,87h.07l1.33,4.61h0l.84,2.79H48.24Z" style="fill:#1d1d1b"></path>
  <polygon points="149.87 79 149.87 91.99 147.56 87.66 142.82 79 135.21 79 135.21 103.15 142.19 103.15 142.19 89.96 142.26 89.96 149.73 103.15 156.92 103.15 156.92 79 149.87 79" style="fill:#1d1d1b"></polygon>
  <path d="M165.36,111.6H15.44V70H165.36ZM18.93,108.11H161.87V73.49H18.93Z" style="fill:#1d1d1b"></path>
</svg>
