<?xml version="1.0" encoding="UTF-8"?>
<svg xmlns="http://www.w3.org/2000/svg" id="Layer_1" data-name="Layer 1" viewBox="0 0 180 180">
  <title>blizzard-logo</title>
  <path d="M131.32,91h-4.55v-2h4.55c1,0,1.42.44,1.42,1s-.46,1-1.42,1m3.11,2.47s.35-.19.68-.4a3.88,3.88,0,0,0,.48-.3h0a2.6,2.6,0,0,0,1-1.53,5.9,5.9,0,0,0,.13-1.11v-.34c0-2.33-2.12-3.15-3.58-3.4a8.84,8.84,0,0,0-1.07-.11H122.8v7.29s1,1.76,1.44,2.4h2.53V93.81h2.51a1.29,1.29,0,0,1,1.06.38c.52.53,1.06,1,1.62,1.51a1.16,1.16,0,0,0,.55.24l.15,0h4.42l-1.3-1.22-1.35-1.26m-33.32-.36,1.54-1,4.88-3.21c.39-.25.35-.39.35-.64V86.53c0-.14,0-.26-.28-.26H94.79v2.79h6.75l-6.28,4.12c-.45.3-.47.51-.47.62v1.91c0,.15.14.24.31.25h11.15l1.69-2.84Zm12.59-1h0l1.55-2.62,1.56,2.62Zm3.62-5.83h-4.17a.65.65,0,0,0-.34.17L107.16,96h3.56c.38,0,.68,0,.8-.21l.63-1.06h5.22c.68,0,1,0,1.18.34l.4.69a.51.51,0,0,0,.5.24h3.87l-5.64-9.5a.6.6,0,0,0-.36-.19ZM88.74,92.11l4.88-3.21c.39-.25.34-.39.34-.64V86.53c0-.14,0-.26-.27-.26H80.87v2.79h6.76l-1.19.78-5.09,3.34c-.45.3-.48.51-.48.62v1.91c0,.15.14.24.32.25H94V93.12H87.2l1.54-1M67,93.12V86.45a.34.34,0,0,0-.28-.18H63.05V95c0,.56.56,1,1.41,1h10.8V93.12Zm-9.48.23h-5V92.21h5a.65.65,0,0,1,.7.57A.65.65,0,0,1,57.54,93.35Zm-5-4.47h4.23a.58.58,0,1,1,0,1.13H52.54V88.88Zm8.74,1.71h0a2.51,2.51,0,0,0,.3-1.2,2.71,2.71,0,0,0-.1-.75h0a3,3,0,0,0-2.67-2.3,4.43,4.43,0,0,0-.81-.07H48.45V96H58.87c1.65,0,3.49-1.35,3.49-3.1a2.93,2.93,0,0,0-1.08-2.27Zm18.47-4.32H76.08v9.44c0,.15.14.24.32.25h3.65V86.51a.3.3,0,0,0-.3-.24M148,92.14c0,.54-.46,1-1.42,1h-5.08V89.06h5.08c1,0,1.42.44,1.42,1v2.11Zm4-2.36c0-3-3.62-3.51-4.65-3.51h-9.8v9.45a.27.27,0,0,0,.28.24h9.52c1,0,4.43-.26,4.64-3.3,0-.63,0-2.39,0-2.88ZM33.83,97.19,34,97l.21-.17.2-.17.21-.18.11-.1.1-.1.11-.1.1-.11.11-.1.1-.11.09-.11.09-.11.07-.09.06-.09.06-.08.06-.1.06-.09,0-.1.05-.09,0-.1,0-.08,0-.07,0-.07,0-.08,0-.07V94L36,94l0-.07,0-.07,0-.06,0-.07,0-.06,0-.07,0,0-.05-.06-.06-.06-.05-.06-.06,0-.06,0-.06,0-.07,0-.06-.05-.07,0-.07,0-.07,0L35,92.89l-.11-.06-.12,0-.12,0-.12,0-.12,0-.12,0-.13,0-.12,0-.13,0-.12,0-.13,0-.12,0h-.13l-.13,0h-.63l-.44,0H32l-.19,0a.27.27,0,0,1-.23-.14.27.27,0,0,1,0-.26l.28-.47h10l-.18.27-.19.25-.2.26-.2.25-.2.24-.22.24-.21.24-.22.23-.24.24-.24.23-.24.23-.25.22-.26.22-.25.22-.26.21-.27.21-.26.21-.35.26-.35.25-.35.25-.35.24-.36.24-.37.23-.36.23-.42.26-.42.25-.3.18c-.27.14,0,.24,0,.24a6.8,6.8,0,0,0,2.68.49,7.45,7.45,0,0,0,7.46-7.39A7.32,7.32,0,0,0,41,84.89a.28.28,0,0,0-.28,0l-.13.1-.21.17-.22.17-.2.17-.21.18-.2.17-.11.1-.11.1-.11.1-.1.11-.11.1-.1.11-.09.11-.09.12-.07.08-.06.09-.06.09-.06.09-.06.09,0,.1,0,.09,0,.1,0,.08,0,.07,0,.07,0,.08,0,.07v.53l0,.07,0,.07,0,.07,0,.06,0,.07,0,.06,0,.07,0,.06,0,.05.06.06.05.06.06,0,.06.05.06,0,.07,0,.06,0,.07,0,.07,0,.07,0,.12.06.11.06.12,0,.12,0,.12,0,.12,0,.13,0,.12,0,.12,0,.13,0,.12,0,.13,0,.13,0h.12l.13,0h.63L42,90h.2l.19,0a.26.26,0,0,1,.23.14.27.27,0,0,1,0,.26l-.28.47h-10l.18-.26.19-.26.2-.26.2-.25.2-.24.22-.24.21-.24.22-.23.24-.24.24-.23.24-.23.25-.22.26-.22.25-.22.26-.21.27-.21.26-.21.35-.26.35-.25.35-.25.36-.24.36-.24.36-.23.36-.23.42-.26.42-.25.31-.18c.26-.13,0-.24,0-.24a6.8,6.8,0,0,0-2.68-.49,7.45,7.45,0,0,0-7.46,7.4,7.31,7.31,0,0,0,3.58,6.29.25.25,0,0,0,.28,0l.35-.27Z" style="fill:#001828;fill-rule:evenodd"></path>
</svg>
