<?xml version="1.0" encoding="UTF-8"?>
<svg xmlns="http://www.w3.org/2000/svg" id="Layer_1" data-name="Layer 1" viewBox="0 0 180 180">
  <title>ride-logo</title>
  <path d="M81.6,110,89,96h6.8v14H103V72H87.2c-8.1,0-12.8,4.7-12.8,11.5,0,8.4,5.6,10.6,7.5,11.2L73.5,110Zm0-25.9c0-3.4,2.2-5.6,7.2-5.6h6.8V90H87.8C84.4,89.7,81.6,87.5,81.6,84.1ZM90,128.9a37.86,37.86,0,0,0,38-37.7V91a38,38,0,0,0-76-.3V91C51.7,111.5,68.5,128.9,90,128.9ZM57.9,90.7c0-17.7,13.7-32.1,31.7-32.1a31.82,31.82,0,0,1,32.1,32.1V91c0,17.7-13.7,32-31.7,32C71.6,123,57.9,108.7,57.9,90.7Z"></path>
</svg>
