<?xml version="1.0" encoding="UTF-8"?>
<svg xmlns="http://www.w3.org/2000/svg" id="Layer_1" data-name="Layer 1" viewBox="0 0 180 180">
  <title>atomic</title>
  <path d="M23.54,73S27,89,27.2,90.77c.51,3.9,2,5.55,3.66,8.35,1.42,2.47,5.16,8.21,5.16,8.21l-12.48-6.64-12.49,6.64s3.74-5.76,5.17-8.16c1.72-2.88,3.13-4.41,3.66-8.43L23.54,73Z" style="fill:#ed1a3b"></path>
  <polygon points="138.6 87.19 145.71 87.19 139.09 100.67 131.97 100.67 138.6 87.19 138.6 87.19" style="fill:#ed1a3b"></polygon>
  <path d="M166.06,95.55c-.61,1.38-3,5.44-12.58,5.44-6.7,0-9.59-2.53-9.1-6.14.6-4.36,5.75-8,13.61-8,5.14,0,9.56,1.3,9.14,5.34H160.4c.24-1.27-.7-2-2.9-2-3.95,0-5.73,2.64-6,4.55-.15,1.11.06,2.85,3.33,2.85,2.23,0,3.62-.89,4.23-2.08Z" style="fill:#ed1a3b"></path>
  <path d="M58.88,87.19h7l1.75,13.48h-7l-.13-1.93H53l-2,1.93H43.68l15.2-13.48ZM56,95.85h4.44l-.23-4H60.1l-4.15,4Z" style="fill:#ed1a3b"></path>
  <polygon points="74.26 90.64 67.86 90.64 69.56 87.19 89.49 87.19 87.79 90.64 81.38 90.64 76.45 100.67 69.34 100.67 74.26 90.64 74.26 90.64" style="fill:#ed1a3b"></polygon>
  <path d="M97.93,86.87c6.54,0,10.27,1.79,9.71,5.91C107,97.31,101.41,101,93.55,101c-6.54,0-10.24-2-9.71-5.91.62-4.53,6.23-8.21,14.09-8.21ZM94.09,97.63c4.27,0,6.06-2.95,6.34-4.95.16-1.23-.48-2.45-3.26-2.45-4.27,0-6.06,2.94-6.34,4.94-.16,1.23.48,2.46,3.26,2.46Z" style="fill:#ed1a3b"></path>
  <path d="M101.83,100.06c3.69-1.62,6.06-4.24,6.47-7.2A4.48,4.48,0,0,0,107.22,89l1-1.81h9.93l-.69,7.25h.06l7.3-7.25h10.12l-6.75,13.48h-6.6l4.82-9.29h-.06l-8.84,9.29h-5.27l.43-9.29h-.07l-4.43,9.29h-6.61l.32-.61Z" style="fill:#ed1a3b"></path>
</svg>
