<?xml version="1.0" encoding="UTF-8"?>
<svg xmlns="http://www.w3.org/2000/svg" id="Layer_1" data-name="Layer 1" viewBox="0 0 180 180">
  <title>rossignol</title>
  <path d="M143.29,89.61c6.72.15,13.72-2.23,16.13-4a129.44,129.44,0,0,0-14-.59s-1.25,3-2.12,4.56" style="fill:#e1251b"></path>
  <path d="M146.81,67a23.23,23.23,0,1,0,23.24,23.22A23.23,23.23,0,0,0,146.81,67m18.65,19.82a41.19,41.19,0,0,1-18.3,5.82c4.07,2.73,9.35,4.5,15.15,6.06a.41.41,0,0,1,.32.26l0,.1a.78.78,0,0,1-.22.45,3.73,3.73,0,0,1-2.63,1.17,57.93,57.93,0,0,1-18.44-7.36s-2.05,3.47-3.24,5a1.41,1.41,0,0,1-1.8.61l-1.67-.87s2.83-4.81,3.63-6.47c-.09-.06-.85-.37-.85-.38a.52.52,0,0,1-.23-.48,1.85,1.85,0,0,1,.22-.78c.3-.63.86-1.18,1.33-1l.77.19a20.11,20.11,0,0,0,1.55-4c-6.08.12-12.65.65-13.43.69a6.91,6.91,0,0,1,.08-.85c.16-1.07.78-2.26,1.32-2.43a13.81,13.81,0,0,1,2-.38c11.84-1.33,30.09-.69,33.53.37.54.16.9,1.36,1.06,2.42a6.88,6.88,0,0,1,.08,1c0,.5-.09.8-.28.93" style="fill:#e1251b"></path>
  <path d="M33.68,84.09a5.48,5.48,0,0,0-4.16-1.66,5.47,5.47,0,0,0-4.16,1.66c-1.5,1.51-1.5,3.54-1.5,5.69v.51c0,2.15,0,4.18,1.5,5.68a5.44,5.44,0,0,0,4.16,1.67A5.45,5.45,0,0,0,33.68,96c1.5-1.5,1.5-3.53,1.5-5.68v-.51c0-2.15,0-4.18-1.5-5.69m-2.54,9.77a2.14,2.14,0,0,1-3.24,0c-.37-.49-.59-1-.59-3.83s.23-3.38.59-3.84a2.18,2.18,0,0,1,3.24,0c.36.46.59,1,.59,3.84s-.22,3.34-.59,3.83" style="fill:#e1251b"></path>
  <path d="M43.62,88.53l-1.84-.26a1.87,1.87,0,0,1-1.14-.48,1.21,1.21,0,0,1-.35-.82c0-.78.62-1.57,2-1.57h.12a3.77,3.77,0,0,1,2.76.85s2.11-2.11,2.15-2.15a6.62,6.62,0,0,0-4.92-1.67c-3.24,0-5.42,1.87-5.42,4.66a4.11,4.11,0,0,0,1,3,5.09,5.09,0,0,0,3,1.3l1.85.26a1.86,1.86,0,0,1,1.1.45,1.46,1.46,0,0,1,.33,1c0,1-.8,1.52-2.33,1.52a5.43,5.43,0,0,1-3.4-1l-2.19,2.19c1.32,1.31,3,1.87,5.56,1.87,2.86,0,5.75-1.44,5.75-4.65a4.29,4.29,0,0,0-1.09-3.23,5.07,5.07,0,0,0-2.92-1.23" style="fill:#e1251b"></path>
  <path d="M59.89,93a4.29,4.29,0,0,0-1.09-3.23,5.07,5.07,0,0,0-2.91-1.23L54,88.27a1.9,1.9,0,0,1-1.14-.48,1.18,1.18,0,0,1-.34-.82c0-.78.61-1.57,2-1.57h.12a3.8,3.8,0,0,1,2.77.85l2.14-2.15a6.62,6.62,0,0,0-4.92-1.67c-3.25,0-5.42,1.87-5.42,4.66a4.11,4.11,0,0,0,1,3,5.07,5.07,0,0,0,3,1.3l1.83.26a1.81,1.81,0,0,1,1.1.45,1.38,1.38,0,0,1,.35,1c0,1-.81,1.52-2.34,1.52a5.45,5.45,0,0,1-3.4-1l-2.19,2.19c1.33,1.31,3,1.87,5.56,1.87,2.87,0,5.75-1.44,5.75-4.65" style="fill:#e1251b"></path>
  <rect x="62" y="82.55" width="3.44" height="14.95" style="fill:#e1251b"></rect>
  <path d="M79,91V89H73.35v2.82H75.6v.37A2.45,2.45,0,0,1,75,94a2.36,2.36,0,0,1-1.78.64,2,2,0,0,1-1.6-.7c-.36-.47-.59-1-.59-3.87s.23-3.38.59-3.84a2,2,0,0,1,1.6-.73,2.08,2.08,0,0,1,2.3,1.72H79a5.49,5.49,0,0,0-5.77-4.75,5.41,5.41,0,0,0-4.13,1.66c-1.51,1.51-1.51,3.54-1.51,5.69v.51c0,2.15,0,4.18,1.51,5.68a6.19,6.19,0,0,0,8.46,0c1.09-1.12,1.5-2.46,1.5-5" style="fill:#e1251b"></path>
  <path d="M100.24,97.64A5.47,5.47,0,0,0,104.41,96c1.5-1.5,1.49-3.53,1.49-5.68v-.51c0-2.15,0-4.18-1.49-5.69a6,6,0,0,0-8.32,0c-1.51,1.51-1.51,3.54-1.51,5.69v.51c0,2.15,0,4.18,1.51,5.68a5.43,5.43,0,0,0,4.15,1.67M98.62,86.19a2,2,0,0,1,1.62-.73,2,2,0,0,1,1.63.73c.35.46.59,1,.59,3.84s-.23,3.35-.59,3.83a2.15,2.15,0,0,1-3.25,0c-.36-.48-.59-1-.59-3.83s.24-3.38.59-3.84" style="fill:#e1251b"></path>
  <path d="M113.67,94.45a2,2,0,0,1-1.62-.72c-.35-.47-.59-1-.59-3.85V82.55H108v7.86c0,1.85,0,3.93,1.5,5.43a5.43,5.43,0,0,0,4.15,1.67h4.2V94.45Z" style="fill:#e1251b"></path>
  <path d="M19.71,91.16a4.28,4.28,0,0,0,2.41-3.85,4.76,4.76,0,0,0-5.06-4.76h-5.9v15h3.45V91.85h.62a1.32,1.32,0,0,1,1.35,1l2.25,4.71h4l-3.26-6.28ZM16.88,89H14.61V85.61h2.27a1.7,1.7,0,1,1,0,3.39" style="fill:#e1251b"></path>
  <path d="M84.59,90.65v-5H86.8a2,2,0,0,1,1.62.72c.33.44.55.92.58,3.28v7.9h3.46V89.66c0-1.85,0-3.94-1.5-5.44a5.49,5.49,0,0,0-4.16-1.67H81.14v15h3.45V90.65" style="fill:#e1251b"></path>
</svg>
