<?xml version="1.0" encoding="UTF-8"?>
<svg xmlns="http://www.w3.org/2000/svg" id="Layer_1" data-name="Layer 1" viewBox="0 0 180 180">
  <title>gnu-logo</title>
  <path d="M75.15,75.39l.54,20.27,8,13,24.46-.65-.91-33.47ZM60.71,72.94l-20,36.86,41.93-1.13Z" style="fill:#0b0204"></path>
  <path d="M122,72.07a17.71,17.71,0,0,0-13.75,7.14l.58,22A17.76,17.76,0,1,0,122,72.07Z"></path>
  <path d="M122.91,104.66c-6,.15-10.9-3.5-11.09-9.26l-.47-17.9,5.72-.15.48,17.72c.07,3.14,2.11,5,5.21,4.89s5.07-2,5-5.14l-.48-17.72L133,77l.47,17.9c.15,5.73-4.52,9.66-10.53,9.81ZM61.15,88.47l2.44,4,4.89-.15L60.93,80l-14.36,26.5,30.15-.84-5.66-9.11-.8-1.35-4.88.15-5.4.14-1.49,2.92,1.6,0,7-.18,2.41,3.9-16,.44ZM98.81,77.86l.47,16.77L84.41,78.27l-6,.14L79,101l2.88,4.66,2.66-.07L84,85.92l16.81,19.18,4.15-.11-.73-27.27Z" style="fill:#fff"></path>
  <path d="M123.05,110.53a20.63,20.63,0,0,1-12-3.43l.1,3.72L35.7,112.9,60.56,67,72.49,86.43l-.37-13.92,38-1,0,1.68a20.72,20.72,0,1,1,12.87,37.37ZM110.91,100.4a15.68,15.68,0,1,0-.58-20.49l.58,20.49ZM106,105.94l-.8-29.28-27.93.77L77.77,95l7.08,11.48,21.18-.58Zm-27,.73L60.86,77.1,44.3,107.61,79,106.67Z" style="fill:#0b0204"></path>
  <path d="M122,71.16a18.37,18.37,0,0,0-13.75,6.67l-.1-4.19-33.84.91.55,19.61-14.15-23L39.24,110.71l45-1.24,24.86-.69-.18-6.27a18.63,18.63,0,1,0,13-31.35ZM40.73,109.8l20-36.86,21.95,35.73ZM108.14,108l-24.46.65-8-13-.54-20.27,32.08-.88.91,33.47Zm14.84-.4a17.8,17.8,0,0,1-14.11-6.38l-.62-22A17.76,17.76,0,1,1,123,107.58Z" style="fill:#fff"></path>
</svg>
