<?xml version="1.0" encoding="UTF-8"?>
<svg xmlns="http://www.w3.org/2000/svg" xmlns:xlink="http://www.w3.org/1999/xlink" id="Layer_1" data-name="Layer 1" viewBox="0 0 180 180">
  <defs>
    <clipPath id="clip-path">
      <rect x="2.24" y="27" width="83.26" height="126.32" style="fill:none"></rect>
    </clipPath>
  </defs>
  <title>skis</title>
  <g style="clip-path:url(#clip-path)">
    <path d="M36.93,83.31H25.35a1.93,1.93,0,0,1-1.57-2.08,1.88,1.88,0,0,1,1.57-2H36.93a1.88,1.88,0,0,1,1.57,2,1.93,1.93,0,0,1-1.57,2.08m0,17.82H25.35a1.88,1.88,0,0,1-1.57-2A1.93,1.93,0,0,1,25.35,97H36.93A1.93,1.93,0,0,1,38.5,99.1a1.88,1.88,0,0,1-1.57,2M31.09,27a9.37,9.37,0,0,0-9.26,9.46V143.72a9.4,9.4,0,1,0,18.8,0V36.6A9.36,9.36,0,0,0,31.52,27h-.43" style="fill:#241f21"></path>
    <path d="M62.4,83.31H50.82a1.93,1.93,0,0,1-1.57-2.08,1.88,1.88,0,0,1,1.57-2H62.4a1.88,1.88,0,0,1,1.57,2,1.93,1.93,0,0,1-1.57,2.08m0,17.82H50.82a1.88,1.88,0,0,1-1.57-2A1.93,1.93,0,0,1,50.82,97H62.4A1.93,1.93,0,0,1,64,99.1a1.88,1.88,0,0,1-1.57,2M56.66,27a9.37,9.37,0,0,0-9.27,9.46V143.72a9.41,9.41,0,1,0,18.81,0V36.6A9.38,9.38,0,0,0,57.08,27h-.42" style="fill:#241f21"></path>
    <path d="M6.27,32.16a1.95,1.95,0,1,1,3.89,0v30.3a2.15,2.15,0,0,1-.55,1.37,2.39,2.39,0,0,1-.84.43h-1a1.8,1.8,0,0,1-.92-.33,2.21,2.21,0,0,1-.56-1.38Z" style="fill:#241f21"></path>
  </g>
  <polygon points="7.2 65.77 7.62 65.77 8.13 65.77 8.63 65.77 9.05 65.77 9.05 136.4 7.2 136.4 7.2 65.77" style="fill:#241f21"></polygon>
  <g style="clip-path:url(#clip-path)">
    <path d="M9.24,149.06a1,1,0,1,1-2,0v-8.22h2Z" style="fill:#241f21"></path>
  </g>
  <polygon points="10.72 137.96 5.72 137.96 2.24 137.96 2.24 139.28 5.72 139.28 10.72 139.28 14.19 139.28 14.19 137.96 10.72 137.96" style="fill:#241f21"></polygon>
  <g style="clip-path:url(#clip-path)">
    <path d="M77.59,32.16a1.95,1.95,0,1,1,3.89,0v30.3a1.78,1.78,0,0,1-1.35,1.8h-1a2.59,2.59,0,0,1-.78-.43,2.1,2.1,0,0,1-.56-1.37V32.16Z" style="fill:#241f21"></path>
  </g>
  <polygon points="78.51 65.77 78.93 65.77 79.44 65.77 79.95 65.77 80.37 65.77 80.37 136.4 78.33 136.4 78.33 65.77 78.51 65.77" style="fill:#241f21"></polygon>
  <g style="clip-path:url(#clip-path)">
    <path d="M80.55,149.06a1,1,0,1,1-2,0v-8.22h2Z" style="fill:#241f21"></path>
  </g>
  <polygon points="82.03 137.96 77.03 137.96 73.56 137.96 73.56 139.28 77.03 139.28 82.03 139.28 85.51 139.28 85.51 137.96 82.03 137.96" style="fill:#241f21"></polygon>
</svg>
